<svg width="2250" height="1650" xmlns="http://www.w3.org/2000/svg" data-name="Слой 1">
 <defs>
  <linearGradient y2="-0.57885" x2="0.52941" y1="1.08656" x1="0.49823" id="Безымянный_градиент_25">
   <stop stop-color="#05adca" offset="0"/>
   <stop stop-color="#0976d9" offset="0.35"/>
   <stop stop-color="#105099" offset="1"/>
  </linearGradient>
 </defs>
 <g>
  <title>Layer 1</title>
  <path id="svg_1" fill="#195682" d="m5.49976,66.0709s454,-116 690,279c0,0 357,-251 753,49c0,0 -223,-300 -721,-248c0,0 -293,-255 -722,-80z" class="cls-1"/>
  <path id="svg_2" fill="url(#Безымянный_градиент_25)" d="m1266.49976,354.0709l40,26l-81.25,22.32a33.21,33.21 0 0 0 -24.47,28.4c-0.76,7.53 1.11,14.62 6.72,18.28c24.65,16.1 86.08,37.58 153,52c116,25 373,132 419,221s-15,133 -110,157s-273,73 -160,181s374.5,116.5 573.5,229.5l-1789.5,-13.5s-3,-161 258,-271s801.77,-157 872,-202c53,-34 80,-91 -73,-161s-423,-114 -423,-186c0,-65 339,-102 339,-102z" class="cls-2"/>
  <path id="svg_3" fill="#195682" d="m1436.49976,318.0709l28,21s180,-27 191,-27s-31,-17 -219,6z" class="cls-1"/>
  <path id="svg_4" fill="#868487" d="m1149.43976,1392.8909a45.64,45.64 0 0 0 13.91,5.41a89.5,89.5 0 0 0 36.11,0a45.74,45.74 0 0 0 13.91,-5.41a30.39,30.39 0 0 0 9,-8.1a17.27,17.27 0 0 0 3.23,-10.22a15.44,15.44 0 0 0 -1.06,-5.87a14.84,14.84 0 0 0 -2.83,-4.48a13.16,13.16 0 0 0 -4,-3a11.1,11.1 0 0 0 -4.75,-1.06a12.22,12.22 0 0 0 -7.84,2.57a8.4,8.4 0 0 0 -3.23,6.92a23.54,23.54 0 0 0 0.66,5.61a20.12,20.12 0 0 1 0.66,4.68a6.43,6.43 0 0 1 -1.58,4.41a9.78,9.78 0 0 1 -4.42,2.7a28.54,28.54 0 0 1 -6.92,1.19c-2.72,0.18 -5.67,0.35 -8.83,0.53c-3.08,-0.18 -6,-0.35 -8.7,-0.53a30.36,30.36 0 0 1 -7,-1.19a10.69,10.69 0 0 1 -4.68,-2.7a6.14,6.14 0 0 1 -1.72,-4.41a14.23,14.23 0 0 1 0.93,-4.82a16.15,16.15 0 0 0 0.92,-5.47a8.4,8.4 0 0 0 -3.23,-6.92a12.3,12.3 0 0 0 -12.52,-1.51a14.36,14.36 0 0 0 -4.22,3a13.5,13.5 0 0 0 -3,4.62a15.67,15.67 0 0 0 -1,5.73a17.27,17.27 0 0 0 3.23,10.22a30.14,30.14 0 0 0 8.97,8.1z" class="cls-3"/>
  <path id="svg_5" stroke-width="5px" stroke-linejoin="round" stroke-linecap="round" stroke="#868487" fill="#868487" d="m313.48976,1414.2509a1.16,1.16 0 0 1 1.32,1.31s-0.44,43.77 -1.32,43.77c0,0 -3.49,0.94 -3.49,0.24l-8.36,-20.12a19.94,19.94 0 0 0 -18,-12.29c-18.5,-0.35 -50,-0.52 -50,-0.52a1.16,1.16 0 0 0 -1.32,1.31l0,66.7a1.32,1.32 0 0 0 1.32,1.32l30.72,0a12.87,12.87 0 0 0 11.32,-6.69c3.89,-7.15 7.92,-17.3 7.92,-17.3a1.32,1.32 0 0 1 1.32,1.32l0,58.65a1.32,1.32 0 0 1 -1.32,1.32s-3.64,-9.4 -7.19,-16.78a15.24,15.24 0 0 0 -13.74,-8.66l-29,0c-0.88,0 -1.32,0.49 -1.32,1.45l0,72.89a1.32,1.32 0 0 0 1.32,1.32l61.32,0.07a17.94,17.94 0 0 0 17.74,-15.09c1.32,-8.3 1.86,-16.9 2.33,-16.9l2.31,-0.24c0.88,0 1.32,43.23 1.32,43.23a1.17,1.17 0 0 1 -1.32,1.32l-132.92,0c-0.73,0 -0.45,-2.58 -0.45,-3.31l23.38,-8.55a1.17,1.17 0 0 0 1.32,-1.32l0,-155.8c-0.35,-0.53 -25.7,-7.45 -25.7,-8.33l0.13,-3c0,-0.73 130.36,-1.32 130.36,-1.32z" class="cls-4"/>
  <path id="svg_6" stroke-width="5px" stroke-linejoin="round" stroke-linecap="round" stroke="#868487" fill="#868487" d="m1051.48976,1414.2509a1.16,1.16 0 0 1 1.32,1.31s-0.44,43.77 -1.32,43.77c0,0 -3.49,0.94 -3.49,0.24l-8.36,-20.12a19.94,19.94 0 0 0 -18.05,-12.29c-18.5,-0.35 -50,-0.52 -50,-0.52a1.16,1.16 0 0 0 -1.32,1.31l0,66.7a1.32,1.32 0 0 0 1.32,1.32l30.72,0a12.87,12.87 0 0 0 11.32,-6.69c3.89,-7.15 7.92,-17.3 7.92,-17.3a1.32,1.32 0 0 1 1.32,1.32l0,58.65a1.32,1.32 0 0 1 -1.32,1.32s-3.64,-9.4 -7.19,-16.78a15.24,15.24 0 0 0 -13.74,-8.66l-29,0c-0.88,0 -1.32,0.49 -1.32,1.45l0,72.89a1.32,1.32 0 0 0 1.32,1.32l61.32,0.07a17.94,17.94 0 0 0 17.74,-15.09c1.32,-8.3 1.86,-16.9 2.33,-16.9l2.31,-0.24c0.88,0 1.32,43.23 1.32,43.23a1.17,1.17 0 0 1 -1.32,1.32l-132.87,0c-0.73,0 -0.45,-2.58 -0.45,-3.31l23.38,-8.55a1.17,1.17 0 0 0 1.32,-1.32l0,-155.8c-0.35,-0.53 -25.7,-7.45 -25.7,-8.33l0.13,-3c0,-0.73 130.36,-1.32 130.36,-1.32z" class="cls-4"/>
  <path id="svg_7" stroke-width="5px" stroke-linejoin="round" stroke-linecap="round" stroke="#868487" fill="#868487" d="m340.76976,1415.5709a1.16,1.16 0 0 1 1.32,-1.31l70.79,0a1.16,1.16 0 0 1 1.31,1.31s-5.2,2 -10.79,4.46a22.41,22.41 0 0 0 -13.46,20.54l0,52.23c0,0.52 0.13,0.79 0.4,0.79l86.73,0a1.11,1.11 0 0 0 0.26,-0.79l0,-51.9a22.36,22.36 0 0 0 -13,-20.29c-5.81,-2.69 -11.3,-5.06 -11.3,-5.06a1.32,1.32 0 0 1 1.32,-1.31l70.78,0a1.32,1.32 0 0 1 1.32,1.31s-6.23,2.39 -12.57,5.1a21.58,21.58 0 0 0 -13.07,19.92l0.17,129.74a20.92,20.92 0 0 0 12.78,19.26c6.37,2.69 12.74,5 12.74,5a1.17,1.17 0 0 1 -1.32,1.32l-70.78,0a1.17,1.17 0 0 1 -1.32,-1.32s6,-2.37 12.1,-5.06a20.49,20.49 0 0 0 12.15,-18.72l0,-63.47a1.32,1.32 0 0 0 -1.32,-1.32l-84.75,0a1.32,1.32 0 0 0 -1.32,1.31l0,54.08a34.49,34.49 0 0 0 20.57,31.57c2.21,1 3.68,1.61 3.68,1.61a1.16,1.16 0 0 1 -1.31,1.32l-70.79,0a1.17,1.17 0 0 1 -1.32,-1.32l0.28,-0.09a37.75,37.75 0 0 0 25.3,-35.63l0,-118.14a21.88,21.88 0 0 0 -13.23,-20.1c-6.26,-2.69 -12.35,-5.04 -12.35,-5.04z" class="cls-4"/>
  <path id="svg_8" stroke-width="5px" stroke-linejoin="round" stroke-linecap="round" stroke="#868487" fill="#868487" d="m618.62976,1414.2509a1.16,1.16 0 0 1 1.37,1.32s-8,2.91 -14.8,6.06a16.21,16.21 0 0 0 -9.45,14.71l0,111.83l89.5,-109.41a1.62,1.62 0 0 0 0.66,-1.31l0,0a16.88,16.88 0 0 0 -9.55,-15.22c-7.07,-3.39 -15.13,-6.82 -14.84,-6.66a1.16,1.16 0 0 1 1.32,-1.31l70.78,0a1.16,1.16 0 0 1 1.32,1.31s-6.7,2.81 -13.25,5.73a20.72,20.72 0 0 0 -12.32,18.94l0,127.67a24.09,24.09 0 0 0 14.62,22.16c5.74,2.46 11,4.5 11,4.5a1.17,1.17 0 0 1 -1.32,1.32l-70.78,0a1.17,1.17 0 0 1 -1.32,-1.32s4.34,-1.81 9.39,-4.07a25.39,25.39 0 0 0 15,-23.16l0,-108.77l-89.63,109.28a1.75,1.75 0 0 0 -0.53,1.31l0,0a22.49,22.49 0 0 0 12.96,20.41c5.74,2.65 11.19,5 11.19,5a1.17,1.17 0 0 1 -1.32,1.32l-70.78,0a1.17,1.17 0 0 1 -1.32,-1.32s4.77,-1.75 10.19,-3.95a24.71,24.71 0 0 0 15.38,-22.9l0,-132.15a15,15 0 0 0 -9,-13.72c-7.37,-3.22 -16.58,-6.24 -16.58,-6.24a1.16,1.16 0 0 1 1.32,-1.31l70.79,-0.05z" class="cls-4"/>
  <path id="svg_9" stroke-width="5px" stroke-linejoin="round" stroke-linecap="round" stroke="#868487" fill="#868487" d="m1161.62976,1414.2509a1.16,1.16 0 0 1 1.37,1.32s-8,2.91 -14.8,6.06a16.21,16.21 0 0 0 -9.45,14.71l0,111.83l89.5,-109.41a1.62,1.62 0 0 0 0.66,-1.31l0,0a16.88,16.88 0 0 0 -9.55,-15.22c-7.07,-3.39 -15.13,-6.82 -14.84,-6.66a1.16,1.16 0 0 1 1.32,-1.31l70.78,0a1.16,1.16 0 0 1 1.32,1.31s-6.7,2.81 -13.25,5.73a20.72,20.72 0 0 0 -12.32,18.94l0,127.67a24.09,24.09 0 0 0 14.62,22.16c5.74,2.46 11,4.5 11,4.5a1.17,1.17 0 0 1 -1.32,1.32l-70.78,0a1.17,1.17 0 0 1 -1.32,-1.32s4.34,-1.81 9.39,-4.07a25.39,25.39 0 0 0 15,-23.16l0,-108.77l-89.63,109.28a1.75,1.75 0 0 0 -0.53,1.31l0,0a22.49,22.49 0 0 0 13.06,20.42c5.74,2.65 11.19,5 11.19,5a1.17,1.17 0 0 1 -1.32,1.32l-70.78,0a1.17,1.17 0 0 1 -1.32,-1.32s4.77,-1.75 10.19,-3.95a24.71,24.71 0 0 0 15.38,-22.9l0,-132.16a15,15 0 0 0 -9,-13.72c-7.37,-3.22 -16.58,-6.24 -16.58,-6.24a1.16,1.16 0 0 1 1.32,-1.31l70.69,-0.05z" class="cls-4"/>
  <path id="svg_10" stroke-width="5px" stroke-linejoin="round" stroke-linecap="round" stroke="#868487" fill="#868487" d="m888.99976,1572.9109c-0.18,0.91 -0.38,1.81 -0.57,2.67a11.6,11.6 0 0 1 -9,8.95l-0.08,0c-2.73,0.52 -5.47,1 -8.24,1.31s-5.56,0.62 -8.37,0.8s-5.19,0.26 -7.12,0.26a66.42,66.42 0 0 1 -30.51,-7a71,71 0 0 1 -23.53,-19.11a88.45,88.45 0 0 1 -15,-28.08a106.94,106.94 0 0 1 -5.27,-33.74a92.93,92.93 0 0 1 5,-31.17a67.51,67.51 0 0 1 14.63,-24.32a64.77,64.77 0 0 1 23.66,-15.69q14,-5.53 32.1,-5.53a63.64,63.64 0 0 1 8,0.52c0.74,0.1 1.67,0.24 2.63,0.4a21.3,21.3 0 0 1 9.64,4.28l0,0a49.68,49.68 0 0 1 16,22.39c1.19,3.36 2,5.69 2,5.69l6,0c0.63,0 0,-12 0,-24c0,-7.1 -1,-25 -1,-31c0,0 -6,0 -6,0c1,16 -5,14 -12.4,11.9c-4.11,-1.17 -8.4,-1.21 -12.52,-1.65a106,106 0 0 0 -11.08,-0.66a127.18,127.18 0 0 0 -26.82,2.83a107,107 0 0 0 -24.45,8.37a96.53,96.53 0 0 0 -20.76,13.65a87,87 0 0 0 -16.35,18.78a88.55,88.55 0 0 0 -10.67,23.59a104.6,104.6 0 0 0 -0.53,53.59a95.67,95.67 0 0 0 9,22.67a85.8,85.8 0 0 0 14.3,18.85a89,89 0 0 0 19.44,14.63a96.78,96.78 0 0 0 23.93,9.36a114.73,114.73 0 0 0 27.74,3.22c6,0 11.42,-0.24 16.35,-0.72s9.51,-1.08 13.77,-1.78s8.19,-1.45 11.8,-2.24s6.9,-1.58 9.88,-2.37c1,-0.35 1.45,-0.79 1.45,-1.32c0.06,0.03 -11.33,-13.47 -17.05,-18.33z" class="cls-4"/>
  <path id="svg_11" stroke-width="5px" stroke-linejoin="round" stroke-linecap="round" stroke="#868487" fill="#868487" d="m2173.99976,1579.9109c-0.18,0.91 -0.38,1.81 -0.57,2.67a11.6,11.6 0 0 1 -9,8.95l-0.08,0c-2.73,0.52 -5.47,1 -8.24,1.31s-5.56,0.62 -8.37,0.8s-5.19,0.26 -7.12,0.26a66.42,66.42 0 0 1 -30.51,-7a71,71 0 0 1 -23.53,-19.11a88.45,88.45 0 0 1 -15,-28.08a106.94,106.94 0 0 1 -5.27,-33.74a92.93,92.93 0 0 1 5,-31.17a67.51,67.51 0 0 1 14.63,-24.32a64.77,64.77 0 0 1 23.66,-15.69q14,-5.53 32.1,-5.53a63.64,63.64 0 0 1 8,0.52c0.74,0.1 1.67,0.24 2.63,0.4a21.3,21.3 0 0 1 9.64,4.28l0,0a49.68,49.68 0 0 1 16,22.39c1.19,3.36 2,5.69 2.05,5.69l6,0c0.63,0 0,-12 0,-24c0,-7.1 -1,-25 -1,-31c0,0 -6,0 -6,0c1,16 -5,14 -12.4,11.9c-4.11,-1.17 -8.4,-1.21 -12.52,-1.65a106,106 0 0 0 -11.08,-0.66a127.18,127.18 0 0 0 -26.82,2.83a107,107 0 0 0 -24.45,8.37a96.53,96.53 0 0 0 -20.76,13.65a87,87 0 0 0 -16.35,18.78a88.55,88.55 0 0 0 -10.67,23.59a104.6,104.6 0 0 0 -0.53,53.59a95.67,95.67 0 0 0 9,22.67a85.8,85.8 0 0 0 14.3,18.85a89,89 0 0 0 19.44,14.63a96.78,96.78 0 0 0 23.93,9.36a114.73,114.73 0 0 0 27.74,3.22c6,0 11.42,-0.24 16.35,-0.72s9.51,-1.08 13.77,-1.78s8.19,-1.45 11.8,-2.24s6.9,-1.58 9.88,-2.37c1,-0.35 1.45,-0.79 1.45,-1.32c0.01,0.03 -11.38,-13.47 -17.1,-18.33z" class="cls-4"/>
  <path id="svg_12" stroke-width="5px" stroke-linejoin="round" stroke-linecap="round" stroke="#868487" fill="#868487" d="m1543.15976,1414.2509a1.32,1.32 0 0 1 1.32,1.31l-24.26,10.55q-1.44,0 -1.44,1.32l0,137.14a29.29,29.29 0 0 0 18.53,27.24c4.06,1.6 7.17,2.74 7.17,2.74a1.17,1.17 0 0 1 -1.32,1.32l-70.78,0a1.17,1.17 0 0 1 -1.32,-1.32s2.92,-1.19 6.75,-2.85a29.11,29.11 0 0 0 17.5,-26.68l0,-137.07a1.32,1.32 0 0 0 -1.32,-1.31l-80.4,0a2.84,2.84 0 0 0 -0.92,0.13a0.61,0.61 0 0 0 -0.4,0.66l0,135.08a33,33 0 0 0 20.3,30.43c2.37,1 4,1.62 4,1.62a1.17,1.17 0 0 1 -1.32,1.32l-70.79,0a1.16,1.16 0 0 1 -1.31,-1.32s1.46,-0.55 3.68,-1.42a34.43,34.43 0 0 0 21.89,-32.05l0,-133.66a1.17,1.17 0 0 0 -1.32,-1.32l-24.29,-10.54a1.31,1.31 0 0 1 1.31,-1.31l178.74,-0.01z" class="cls-4"/>
  <path id="svg_13" stroke-width="5px" stroke-linejoin="round" stroke-linecap="round" stroke="#868487" fill="#868487" d="m1735.86976,1414.2509a1.16,1.16 0 0 1 1.32,1.31l-24.26,10.55a1.16,1.16 0 0 0 -1.31,1.32l0,140a24.37,24.37 0 0 0 14.38,22.24c5.81,2.6 11.15,4.89 11.15,4.89a1.17,1.17 0 0 1 -1.32,1.32l-70.78,0a1.17,1.17 0 0 1 -1.32,-1.32s5.72,-2.21 11.62,-4.79a21.25,21.25 0 0 0 12.76,-19.47l0,-142.87c0,-0.88 -0.48,-1.32 -1.45,-1.32l-41.78,0c-0.53,0 -0.79,0.44 -0.79,1.32q-0.8,17.52 -1.91,35.52t-3.17,35.13q-2,17.13 -5.14,32.89a193.6,193.6 0 0 1 -7.84,28.8q-7.38,19.9 -17.73,29.92t-23.92,10c-1.76,0 -3.63,-0.08 -5.6,-0.26a27.55,27.55 0 0 1 -6.27,-1.38a33.86,33.86 0 0 1 -6.39,-3a35,35 0 0 1 -6.26,-4.88a4.26,4.26 0 0 1 -0.66,-1a2,2 0 0 1 0.4,-2l14,-19.11c0.53,-0.7 1.07,-1 1.65,-0.79a3,3 0 0 1 1.12,0.53a22.5,22.5 0 0 0 7.11,5.27a16.34,16.34 0 0 0 6.33,1.45a23.72,23.72 0 0 0 5.14,-0.53a14,14 0 0 0 4.81,-2.17a24,24 0 0 0 4.75,-4.35a43.41,43.41 0 0 0 4.55,-6.66a97.78,97.78 0 0 0 6.26,-16.21q2.84,-9.49 5.14,-20.7t4,-23.33q1.65,-12.12 2.84,-24.84t1.58,-25q0.39,-12.26 0.66,-23.33a2,2 0 0 0 -0.27,-0.79a1.05,1.05 0 0 0 -1,-0.53l-27,-10.55a1.16,1.16 0 0 1 1.32,-1.31l133.28,0.03z" class="cls-4"/>
  <path id="svg_14" stroke-width="5px" stroke-linejoin="round" stroke-linecap="round" stroke="#868487" fill="#868487" d="m1924.61976,1410.1609q21,0 37.31,7.18a80.55,80.55 0 0 1 27.68,19.71a86.78,86.78 0 0 1 17.4,29.79a118.65,118.65 0 0 1 0,74.87a90.14,90.14 0 0 1 -17.4,30.25a81.51,81.51 0 0 1 -27.68,20.3q-16.35,7.44 -37.31,7.44t-37.69,-7.18a82.47,82.47 0 0 1 -28.61,-19.84a88.93,88.93 0 0 1 -18.12,-29.79a104.51,104.51 0 0 1 -6.39,-36.9l-26.1,0a1.32,1.32 0 0 0 -1.32,1.32l0,58.88a28.12,28.12 0 0 0 18.72,26.52c3.21,1.14 5.53,1.85 5.53,1.85a1.17,1.17 0 0 1 -1.32,1.32l-70.78,0a1.17,1.17 0 0 1 -1.32,-1.32s2.69,-1 6.33,-2.38a30.17,30.17 0 0 0 19.24,-28.12l0,-119.81a26.65,26.65 0 0 0 -15.7,-24.3c-5.3,-2.38 -9.87,-4.39 -9.87,-4.39a1.32,1.32 0 0 1 1.32,-1.31l70.78,0a1.32,1.32 0 0 1 1.32,1.31s-5.28,2.44 -10.93,5.14a23.33,23.33 0 0 0 -13.32,21.08l0,51c0,0.52 0.13,0.79 0.39,0.79l27.68,0a106.46,106.46 0 0 1 8.84,-33.22a82.87,82.87 0 0 1 46,-43.89q15.81,-6.3 35.32,-6.3zm-3.29,12.13q-15.42,0 -26.89,6.06a56.3,56.3 0 0 0 -19.18,16.48a71.9,71.9 0 0 0 -11.47,24.45a114.7,114.7 0 0 0 -3.75,29.72a130.89,130.89 0 0 0 1.91,22.41a110.47,110.47 0 0 0 5.67,20.89a85.39,85.39 0 0 0 9.42,18.06a66.19,66.19 0 0 0 13.25,14.3a59.54,59.54 0 0 0 17,9.49a60.2,60.2 0 0 0 20.76,3.43q15.69,0 26.89,-6.26a52.75,52.75 0 0 0 18.32,-16.87a74.39,74.39 0 0 0 10.42,-24.65a135.88,135.88 0 0 0 -0.8,-62.81a88.77,88.77 0 0 0 -12.32,-28a64.54,64.54 0 0 0 -20.5,-19.44q-12.26,-7.26 -28.73,-7.26z" class="cls-4"/>
 </g>
</svg>