<?xml version="1.0" encoding="utf-8"?>
<!-- Generator: Adobe Illustrator 25.4.0, SVG Export Plug-In . SVG Version: 6.00 Build 0)  -->
<svg version="1.1" id="Layer_1" xmlns="http://www.w3.org/2000/svg" xmlns:xlink="http://www.w3.org/1999/xlink" x="0px" y="0px"
	 viewBox="0 0 1233.9 791.43" style="enable-background:new 0 0 1233.9 791.43;" xml:space="preserve">
<style type="text/css">
	.st0{fill-rule:evenodd;clip-rule:evenodd;fill:#878787;}
</style>
<g>
	<path class="st0" d="M1000.74,221.45c7.22-33.31,22.2-59.41,62.17-58.29c34.43,1.67,57.75,31.65,49.41,64.4l-13.86,68.84
		c-1.12,9.45,6.67,11.66,12.76,12.21h59.96c41.09,1.11,55.53,30.54,54.42,56.64c-1.68,27.76-25,54.41-69.96,50.5h-61.64
		c-10,0-19.42,6.66-23.31,14.98l-12.78,63.32c-6.11,30.52-10.55,72.17-63.29,70.51c-42.2-1.1-58.29-39.99-46.08-76.62l11.1-58.84
		c-0.55-8.34-4.44-12.25-11.65-13.35h-58.86c-27.76-0.55-49.99-26.08-49.41-52.17c1.1-31.65,23.88-57.74,65.52-54.97h63.29
		c9.42-2.77,15.54-6.1,18.32-16.65L1000.74,221.45z M268.96,28.79C120.72,26.02,25.77,139.83,100.73,256.98
		c-68.28,41.08-92.72,101.05-90.5,151.57c3.33,78.84,72.74,147.7,162.13,147.7l194.33-0.57c24.43-0.55,101.05-10,133.8-102.16
		c12.23-29.97,23.88-72.73,36.65-123.24c8.88-24.98,31.65-50.52,62.19-52.19h32.77c37.18,5.56,48.83,30.53,40.51,71.62l-42.2,194.87
		c-2.22,7.22,2.21,11.68,8.87,12.21h84.97c7.22,0,12.76-2.76,13.86-11.65l41.11-203.75c28.87-207.65-287.06-212.08-338.14-45.53
		l-38.31,124.92c-6.65,19.99-31.65,33.85-62.73,34.43H178.47c-33.88-2.78-52.19-34.43-50.53-66.06
		c1.67-31.1,24.43-71.07,73.28-71.62h141.03c8.33,0.55,12.77-2.77,13.32-10l12.21-73.84c1.11-6.67-1.1-11.11-9.42-11.66H233.98
		c-23.32-4.99-41.63-13.88-46.08-47.19c0-36.09,22.76-49.41,52.75-51.63l161.01-1.11c6.11,0,10.55-2.77,11.66-8.88l13.87-77.18
		c0.56-5-1.66-7.77-7.22-7.22H268.96z"/>
	<path class="st0" d="M1102.73,661.25h48.71c4.8,0,9.42,0.57,13.86,1.72c4.46,1.15,8.43,3.06,11.84,5.67
		c3.46,2.63,6.2,6.07,8.28,10.27c2.06,4.22,3.08,9.34,3.08,15.39c0,6.31-0.85,11.72-2.57,16.22c-1.74,4.5-4.22,8.17-7.47,11
		c-3.27,2.82-7.17,4.88-11.72,6.17c-4.54,1.3-9.66,1.95-15.3,1.95h-21.97v34.19h-26.74V661.25z M1129.47,708.94h17.96
		c4.2,0,7.66-0.95,10.33-2.89c2.68-1.91,4.01-5.22,4.01-9.91c0-4.86-1.36-8.34-4.08-10.4c-2.74-2.08-6.16-3.1-10.27-3.1h-17.96
		V708.94z M930.44,721.44c0,14.84-3.57,25.96-10.7,33.41c-7.13,7.41-18.47,11.1-33.98,11.1s-26.83-3.69-33.96-11.1
		c-7.13-7.45-10.7-18.57-10.7-33.41v-60.19h26.72v61.77c0,6.62,1.34,11.59,4.01,14.94c2.7,3.35,7.34,5.03,13.92,5.03
		c6.62,0,11.27-1.68,13.94-5.03c2.7-3.35,4.03-8.32,4.03-14.94v-61.77h26.7V721.44z M571.71,712.53c0-7.45,1.11-14.43,3.36-20.91
		c2.25-6.47,5.53-12.1,9.85-16.96c4.31-4.82,9.59-8.62,15.87-11.4c6.27-2.8,13.43-4.18,21.47-4.18c8.04,0,15.2,1.38,21.48,4.18
		c6.26,2.78,11.57,6.58,15.88,11.4c4.31,4.86,7.58,10.48,9.85,16.96c2.23,6.47,3.37,13.46,3.37,20.91c0,7.47-1.15,14.43-3.37,20.88
		c-2.27,6.47-5.54,12.14-9.85,16.96c-4.31,4.84-9.62,8.66-15.88,11.42c-6.28,2.78-13.44,4.16-21.48,4.16
		c-8.04,0-15.2-1.38-21.47-4.16c-6.27-2.76-11.56-6.58-15.87-11.42c-4.32-4.82-7.6-10.48-9.85-16.96
		C572.82,726.96,571.71,720,571.71,712.53z M598.42,712.53c0,3.82,0.43,7.58,1.28,11.21c0.87,3.63,2.26,6.9,4.17,9.76
		c1.92,2.87,4.38,5.18,7.41,6.9c3.01,1.74,6.67,2.59,10.97,2.59c4.32,0,7.98-0.85,10.99-2.59c3.01-1.72,5.5-4.03,7.39-6.9
		c1.93-2.86,3.31-6.13,4.18-9.76c0.85-3.63,1.29-7.39,1.29-11.21c0-3.84-0.45-7.56-1.29-11.21c-0.87-3.65-2.25-6.9-4.18-9.77
		c-1.89-2.89-4.37-5.16-7.39-6.9c-3.01-1.72-6.67-2.59-10.99-2.59c-4.3,0-7.96,0.87-10.97,2.59c-3.03,1.74-5.49,4.01-7.41,6.9
		c-1.91,2.87-3.3,6.11-4.17,9.77C598.85,704.97,598.42,708.69,598.42,712.53z M317.37,661.25h52.29c4.5,0,8.91,0.53,13.22,1.59
		c4.3,1.04,8.14,2.74,11.48,5.09c3.35,2.33,6.06,5.33,8.12,8.98c2.06,3.63,3.1,8.04,3.1,13.2c0,5.56-1.33,10.7-3.96,15.45
		c-2.63,4.73-6.69,8.15-12.14,10.27v0.28c2.68,0.68,4.94,1.87,6.76,3.59c1.81,1.74,3.3,3.76,4.45,6.03
		c1.16,2.31,2.01,4.78,2.59,7.43c0.57,2.61,0.94,5.14,1.15,7.54c0.1,1.04,0.19,2.67,0.29,4.88c0.1,2.19,0.28,4.5,0.57,6.9
		c0.3,2.4,0.72,4.63,1.29,6.75c0.57,2.1,1.3,3.63,2.15,4.61h-26.42c-0.58-0.89-1.06-2.08-1.43-3.61c-0.39-1.53-0.69-3.14-0.87-4.82
		c-0.19-1.68-0.34-3.23-0.44-4.67c-0.09-1.42-0.18-2.53-0.27-3.31c-0.2-2.57-0.49-5.09-0.87-7.6c-0.39-2.48-1.1-4.75-2.15-6.75
		c-1.05-2.02-2.51-3.61-4.38-4.82c-1.87-1.21-4.38-1.78-7.53-1.78H344.1v37.36h-26.72V661.25z M344.1,705.78h22.4
		c4.02,0,7.09-1.02,9.2-3.1c2.11-2.06,3.15-5.05,3.15-8.96c0-3.84-1.31-6.64-3.95-8.42c-2.62-1.76-5.82-2.65-9.54-2.65H344.1V705.78
		z M145.8,763.83h-17.23l-1.58-11.23c-1.73,2.48-3.76,4.59-6.1,6.26c-2.35,1.68-4.8,3.04-7.33,4.08c-2.53,1.08-5.09,1.83-7.68,2.31
		c-2.58,0.49-5.07,0.7-7.47,0.7c-7.76,0-14.79-1.38-21.12-4.16c-6.33-2.76-11.71-6.58-16.15-11.42
		c-4.46-4.82-7.89-10.48-10.27-16.96c-2.4-6.45-3.6-13.41-3.6-20.88c0-7.45,1.2-14.43,3.6-20.91c2.39-6.47,5.82-12.1,10.27-16.96
		c4.45-4.82,9.83-8.62,16.15-11.4c6.32-2.8,13.36-4.18,21.12-4.18c5.26,0,10.56,0.72,15.87,2.16c5.32,1.44,10.14,3.67,14.44,6.69
		c4.31,3.01,7.93,6.86,10.85,11.55c2.92,4.71,4.67,10.25,5.24,16.66h-26.72c-0.48-4.39-2.6-7.85-6.39-10.34
		c-3.78-2.48-8.39-3.74-13.86-3.74c-4.31,0-7.97,0.87-10.98,2.59c-3.01,1.74-5.49,4.01-7.41,6.9c-1.91,2.87-3.3,6.11-4.16,9.77
		c-0.86,3.65-1.29,7.36-1.29,11.21c0,3.82,0.44,7.58,1.29,11.21s2.25,6.9,4.16,9.76c1.92,2.87,4.39,5.18,7.41,6.9
		c3.01,1.74,6.68,2.59,10.98,2.59c6.61,0,11.99-1.42,16.16-4.24c4.16-2.82,6.62-6.58,7.4-11.27H102.7v-19.82h43.1V763.83z"/>
</g>
</svg>
